<?xml version="1.0" encoding="UTF-8" standalone="no"?>
<!-- Created with Inkscape (http://www.inkscape.org/) -->
<svg
   xmlns:dc="http://purl.org/dc/elements/1.1/"
   xmlns:cc="http://creativecommons.org/ns#"
   xmlns:rdf="http://www.w3.org/1999/02/22-rdf-syntax-ns#"
   xmlns:svg="http://www.w3.org/2000/svg"
   xmlns="http://www.w3.org/2000/svg"
   xmlns:xlink="http://www.w3.org/1999/xlink"
   xmlns:sodipodi="http://sodipodi.sourceforge.net/DTD/sodipodi-0.dtd"
   xmlns:inkscape="http://www.inkscape.org/namespaces/inkscape"
   height="48"
   id="svg1"
   inkscape:version="0.46"
   sodipodi:docbase="/root/img/svg"
   sodipodi:docname="runner.svg"
   sodipodi:version="0.32"
   width="48"
   inkscape:output_extension="org.inkscape.output.svg.inkscape"
   version="1.0">
  <metadata
     id="metadata2829">
    <rdf:RDF>
      <cc:Work
         rdf:about="">
        <dc:title>Runner, Simple, with wake marks</dc:title>
        <dc:description>A simplified logo of a runner, for a Running the Race or track-and-field type of theme.</dc:description>
        <dc:subject>
          <rdf:Bag>
            <rdf:li />
            <rdf:li>people</rdf:li>
            <rdf:li>sports</rdf:li>
            <rdf:li>race</rdf:li>
            <rdf:li>activity</rdf:li>
            <rdf:li>runner</rdf:li>
          </rdf:Bag>
        </dc:subject>
        <dc:publisher>
          <cc:Agent
             rdf:about="http://www.openclipart.org">
            <dc:title>Jonadab the Unsightly One</dc:title>
          </cc:Agent>
        </dc:publisher>
        <dc:creator>
          <cc:Agent>
            <dc:title>Jonadab the Unsightly One</dc:title>
          </cc:Agent>
        </dc:creator>
        <dc:rights>
          <cc:Agent>
            <dc:title>Jonadab the Unsightly One</dc:title>
          </cc:Agent>
        </dc:rights>
        <dc:date />
        <dc:format>image/svg+xml</dc:format>
        <dc:type
           rdf:resource="http://purl.org/dc/dcmitype/StillImage" />
        <cc:license
           rdf:resource="http://web.resource.org/cc/PublicDomain" />
        <dc:language>en</dc:language>
      </cc:Work>
      <cc:License
         rdf:about="http://web.resource.org/cc/PublicDomain">
        <cc:permits
           rdf:resource="http://web.resource.org/cc/Reproduction" />
        <cc:permits
           rdf:resource="http://web.resource.org/cc/Distribution" />
        <cc:permits
           rdf:resource="http://web.resource.org/cc/DerivativeWorks" />
      </cc:License>
    </rdf:RDF>
  </metadata>
  <defs
     id="defs3">
    <inkscape:perspective
       sodipodi:type="inkscape:persp3d"
       inkscape:vp_x="0 : 343.75 : 1"
       inkscape:vp_y="0 : 1000 : 0"
       inkscape:vp_z="937.5 : 343.75 : 1"
       inkscape:persp3d-origin="468.75 : 229.16667 : 1"
       id="perspective2855" />
    <linearGradient
       id="linearGradient1546">
      <stop
         id="stop1547"
         offset="0.0000000"
         style="stop-color:#660000;stop-opacity:0.49803922;" />
      <stop
         id="stop1548"
         offset="1.0000000"
         style="stop-color:#660000;stop-opacity:0.0000000;" />
    </linearGradient>
    <linearGradient
       id="linearGradient1538">
      <stop
         id="stop1539"
         offset="0"
         style="stop-color:#00fffb;stop-opacity:1;" />
      <stop
         id="stop1540"
         offset="1.0000000"
         style="stop-color:#660000;stop-opacity:0.0000000;" />
    </linearGradient>
    <linearGradient
       inkscape:collect="always"
       xlink:href="#linearGradient1538"
       id="linearGradient2404"
       gradientUnits="userSpaceOnUse"
       gradientTransform="matrix(-0.198589,0,0,5.035526e-2,96.14411,-32.291506)"
       x1="278.58969"
       y1="1478.0905"
       x2="472.40421"
       y2="1478.0905"
       spreadMethod="pad" />
    <linearGradient
       inkscape:collect="always"
       xlink:href="#linearGradient1538"
       id="linearGradient2406"
       gradientUnits="userSpaceOnUse"
       gradientTransform="matrix(-0.198589,0,0,5.035526e-2,96.14411,-32.291506)"
       x1="278.58969"
       y1="1478.0905"
       x2="472.40421"
       y2="1478.0905" />
    <linearGradient
       inkscape:collect="always"
       xlink:href="#linearGradient1538"
       id="linearGradient2409"
       gradientUnits="userSpaceOnUse"
       gradientTransform="matrix(-0.2035973,0,0,4.911655e-2,96.14411,-32.291506)"
       x1="252.69646"
       y1="1267.7026"
       x2="465.68222"
       y2="1267.7026"
       spreadMethod="pad" />
    <linearGradient
       inkscape:collect="always"
       xlink:href="#linearGradient1538"
       id="linearGradient2411"
       gradientUnits="userSpaceOnUse"
       gradientTransform="matrix(-0.2035973,0,0,4.911655e-2,96.14411,-32.291506)"
       x1="252.69646"
       y1="1267.7026"
       x2="465.68222"
       y2="1267.7026" />
    <linearGradient
       inkscape:collect="always"
       xlink:href="#linearGradient1538"
       id="linearGradient2414"
       gradientUnits="userSpaceOnUse"
       gradientTransform="matrix(-0.229143,0,0,4.364087e-2,96.14411,-32.291506)"
       x1="191.30634"
       y1="1161.2203"
       x2="414.94485"
       y2="1161.2203"
       spreadMethod="pad" />
    <linearGradient
       inkscape:collect="always"
       xlink:href="#linearGradient1538"
       id="linearGradient2416"
       gradientUnits="userSpaceOnUse"
       gradientTransform="matrix(-0.229143,0,0,4.364087e-2,96.14411,-32.291506)"
       x1="191.30634"
       y1="1161.2203"
       x2="414.94485"
       y2="1161.2203" />
    <linearGradient
       inkscape:collect="always"
       xlink:href="#linearGradient1538"
       id="linearGradient2419"
       gradientUnits="userSpaceOnUse"
       gradientTransform="matrix(-0.246736,0,0,4.052916e-2,96.14411,-32.291506)"
       x1="148.85513"
       y1="1019.3937"
       x2="389.664"
       y2="1019.3937"
       spreadMethod="pad" />
    <linearGradient
       inkscape:collect="always"
       xlink:href="#linearGradient1538"
       id="linearGradient2421"
       gradientUnits="userSpaceOnUse"
       gradientTransform="matrix(-0.246736,0,0,4.052916e-2,96.14411,-32.291506)"
       x1="148.85513"
       y1="1019.3937"
       x2="389.664"
       y2="1019.3937" />
    <filter
       inkscape:collect="always"
       id="filter3381">
      <feGaussianBlur
         inkscape:collect="always"
         stdDeviation="0.07892773"
         id="feGaussianBlur3383" />
    </filter>
    <filter
       inkscape:collect="always"
       id="filter3385">
      <feGaussianBlur
         inkscape:collect="always"
         stdDeviation="0.07892773"
         id="feGaussianBlur3387" />
    </filter>
    <filter
       inkscape:collect="always"
       id="filter3389">
      <feGaussianBlur
         inkscape:collect="always"
         stdDeviation="0.07892773"
         id="feGaussianBlur3391" />
    </filter>
    <filter
       inkscape:collect="always"
       id="filter3393">
      <feGaussianBlur
         inkscape:collect="always"
         stdDeviation="0.07892773"
         id="feGaussianBlur3395" />
    </filter>
    <linearGradient
       inkscape:collect="always"
       xlink:href="#linearGradient1538"
       id="linearGradient3491"
       gradientUnits="userSpaceOnUse"
       gradientTransform="matrix(-0.246736,0,0,4.052916e-2,96.14411,-32.291506)"
       spreadMethod="pad"
       x1="148.85513"
       y1="1019.3937"
       x2="389.664"
       y2="1019.3937" />
    <linearGradient
       inkscape:collect="always"
       xlink:href="#linearGradient1538"
       id="linearGradient3493"
       gradientUnits="userSpaceOnUse"
       gradientTransform="matrix(-0.246736,0,0,4.052916e-2,96.14411,-32.291506)"
       x1="148.85513"
       y1="1019.3937"
       x2="389.664"
       y2="1019.3937" />
    <linearGradient
       inkscape:collect="always"
       xlink:href="#linearGradient1538"
       id="linearGradient3495"
       gradientUnits="userSpaceOnUse"
       gradientTransform="matrix(-0.229143,0,0,4.364087e-2,96.14411,-32.291506)"
       spreadMethod="pad"
       x1="191.30634"
       y1="1161.2203"
       x2="414.94485"
       y2="1161.2203" />
    <linearGradient
       inkscape:collect="always"
       xlink:href="#linearGradient1538"
       id="linearGradient3497"
       gradientUnits="userSpaceOnUse"
       gradientTransform="matrix(-0.229143,0,0,4.364087e-2,96.14411,-32.291506)"
       x1="191.30634"
       y1="1161.2203"
       x2="414.94485"
       y2="1161.2203" />
    <linearGradient
       inkscape:collect="always"
       xlink:href="#linearGradient1538"
       id="linearGradient3499"
       gradientUnits="userSpaceOnUse"
       gradientTransform="matrix(-0.2035973,0,0,4.911655e-2,96.14411,-32.291506)"
       spreadMethod="pad"
       x1="252.69646"
       y1="1267.7026"
       x2="465.68222"
       y2="1267.7026" />
    <linearGradient
       inkscape:collect="always"
       xlink:href="#linearGradient1538"
       id="linearGradient3501"
       gradientUnits="userSpaceOnUse"
       gradientTransform="matrix(-0.2035973,0,0,4.911655e-2,96.14411,-32.291506)"
       x1="252.69646"
       y1="1267.7026"
       x2="465.68222"
       y2="1267.7026" />
    <linearGradient
       inkscape:collect="always"
       xlink:href="#linearGradient1538"
       id="linearGradient3503"
       gradientUnits="userSpaceOnUse"
       gradientTransform="matrix(-0.198589,0,0,5.035526e-2,96.14411,-32.291506)"
       spreadMethod="pad"
       x1="278.58969"
       y1="1478.0905"
       x2="472.40421"
       y2="1478.0905" />
    <linearGradient
       inkscape:collect="always"
       xlink:href="#linearGradient1538"
       id="linearGradient3505"
       gradientUnits="userSpaceOnUse"
       gradientTransform="matrix(-0.198589,0,0,5.035526e-2,96.14411,-32.291506)"
       x1="278.58969"
       y1="1478.0905"
       x2="472.40421"
       y2="1478.0905" />
  </defs>
  <sodipodi:namedview
     bordercolor="#666666"
     borderopacity="1.0"
     id="base"
     inkscape:current-layer="svg1"
     inkscape:cx="24.851907"
     inkscape:cy="29.155557"
     inkscape:pageopacity="0.0000000"
     inkscape:pageshadow="2"
     inkscape:window-height="960"
     inkscape:window-width="1266"
     inkscape:window-x="0"
     inkscape:window-y="0"
     inkscape:zoom="8.8453185"
     pagecolor="#ffffff"
     showgrid="false"
     showguides="true"
     inkscape:guide-bbox="true">
    <sodipodi:guide
       orientation="1,0"
       position="427.57251,362.66587"
       id="guide3195" />
  </sodipodi:namedview>
  <g
     id="g3482"
     transform="matrix(0.83877,0,0,0.7893867,5.6964363,13.028105)">
    <g
       transform="matrix(0.5424184,0,0,0.572088,-1.1293475,6.6207499)"
       id="g4951">
      <path
         style="opacity:0.21930237;fill:url(#linearGradient3491);fill-opacity:1;fill-rule:evenodd;stroke:url(#linearGradient3493);stroke-width:0.25;stroke-linecap:butt;stroke-linejoin:miter;stroke-miterlimit:4;stroke-opacity:0.49803922;filter:url(#filter3393)"
         sodipodi:nodetypes="ccssscsssc"
         id="path1531"
         d="M 59.2912,8.3081946 C 58.57141,9.2679046 57.85163,10.227614 57.13185,11.187334 C 52.14135,10.035674 47.03299,7.4278346 42.16035,7.7323646 C 37.81976,8.0036546 33.85169,12.818364 29.49216,12.914814 C 23.00695,13.058284 16.00356,8.2645846 9.62614,8.4521546 C 6.2145,8.5524946 3.29205,12.003084 0.125,13.778554 C 3.72392,11.043374 6.89387,6.2297346 10.92175,5.5730146 C 15.72322,4.7901746 21.42628,9.6673146 26.61303,9.4598446 C 32.22303,9.2354446 37.7045,4.4750246 43.31201,4.2774046 C 48.59722,4.0911446 53.9648,6.9646046 59.2912,8.3081946 z" />
      <path
         style="opacity:0.21930237;fill:url(#linearGradient3495);fill-opacity:1;fill-rule:evenodd;stroke:url(#linearGradient3497);stroke-width:0.25;stroke-linecap:butt;stroke-linejoin:miter;stroke-miterlimit:4;stroke-opacity:0.49803922;filter:url(#filter3389)"
         sodipodi:nodetypes="ccssscsssc"
         id="path1535"
         d="M 52.18261,17.669704 C 51.56223,18.629414 50.94185,19.589124 50.32147,20.548834 C 46.02017,19.397184 41.61729,16.789334 37.41757,17.093874 C 33.67643,17.365164 30.25636,22.179864 26.4989,22.276314 C 20.90931,22.419794 14.8731,17.626084 9.37642,17.813654 C 6.43593,17.913994 3.91708,21.364584 1.18741,23.140054 C 4.28931,20.404874 7.02149,15.591244 10.49311,14.934524 C 14.63148,14.151674 19.54693,19.028824 24.01738,18.821354 C 28.85262,18.596954 33.57709,13.836534 38.41018,13.638914 C 42.9655,13.452644 47.5918,16.326104 52.18261,17.669704 z" />
      <path
         style="opacity:0.21930237;fill:url(#linearGradient3499);fill-opacity:1;fill-rule:evenodd;stroke:url(#linearGradient3501);stroke-width:0.25;stroke-linecap:butt;stroke-linejoin:miter;stroke-miterlimit:4;stroke-opacity:0.49803922;filter:url(#filter3385)"
         sodipodi:nodetypes="ccssscsssc"
         id="path1536"
         d="M 44.57078,29.205444 C 44.19025,30.379894 43.80971,31.482364 43.57313,32.872744 C 39.93664,31.636154 35.63845,28.260154 32.08784,28.587154 C 28.92494,28.878444 26.03347,34.048234 22.85677,34.151794 C 18.13111,34.305854 13.02786,29.158614 8.38075,29.360024 C 5.89475,29.467764 3.76522,33.172834 1.45745,35.079244 C 4.07991,32.142344 6.38981,26.973704 9.32484,26.268554 C 12.82358,25.427964 16.9793,30.664804 20.75879,30.442034 C 24.8467,30.201084 28.84095,25.089584 32.92703,24.877384 C 36.77828,24.677384 40.68953,27.762764 44.57078,29.205444 z" />
      <path
         style="opacity:0.21930237;fill:url(#linearGradient3503);fill-opacity:1;fill-rule:evenodd;stroke:url(#linearGradient3505);stroke-width:0.25;stroke-linecap:butt;stroke-linejoin:miter;stroke-miterlimit:4;stroke-opacity:0.49803922;filter:url(#filter3381)"
         sodipodi:nodetypes="ccssscsssc"
         id="path1537"
         d="M 40.69426,41.494534 C 40.23251,42.454244 39.62893,43.485934 39.02535,44.301684 C 35.82389,43.150034 32.54682,40.542184 29.42097,40.846724 C 26.63643,41.118014 24.09087,45.932714 21.29419,46.029164 C 17.13385,46.172644 12.6411,41.378934 8.54991,41.566504 C 6.36131,41.666854 4.48653,45.117444 2.45483,46.892904 C 4.76358,44.157734 6.79714,39.344094 9.38106,38.687374 C 12.46126,37.904524 16.11984,42.781674 19.44719,42.574204 C 23.04607,42.349804 26.56249,37.589384 30.15977,37.391764 C 33.55029,37.205504 37.27732,40.150934 40.69426,41.494534 z" />
    </g>
    <path
       transform="matrix(-7.7965422e-2,0,0,8.288987e-2,69.611568,-22.052)"
       style="opacity:1;fill:#00c6c8;fill-opacity:1;fill-rule:evenodd;stroke:#00c6c8;stroke-width:15.77408791;stroke-linecap:butt;stroke-linejoin:miter;stroke-miterlimit:4;stroke-dasharray:none;stroke-opacity:1"
       sodipodi:type="arc"
       sodipodi:ry="48.351555"
       sodipodi:rx="49.878448"
       sodipodi:cy="349.48361"
       sodipodi:cx="381.72281"
       id="path908"
       d="M 431.60126,349.48361 A 49.878448,48.351555 0 1 1 331.84436,349.48361 A 49.878448,48.351555 0 1 1 431.60126,349.48361 z" />
    <path
       style="opacity:1;fill:#00c6c8;fill-opacity:1;fill-rule:evenodd;stroke:#00c6c8;stroke-width:2.44048905;stroke-linecap:butt;stroke-linejoin:miter;stroke-miterlimit:4;stroke-opacity:1"
       sodipodi:nodetypes="czcccsccccscsccccsscccc"
       id="path1530"
       d="M 43.554323,16.457768 C 43.518932,15.720423 44.782444,14.61951 45.719823,16.393504 C 46.644417,18.143299 45.280738,19.089397 44.603393,18.437739 C 41.734192,22.070433 38.051301,24.455295 33.256864,18.437738 L 29.698995,23.31487 L 36.394453,28.602285 C 37.780036,29.696482 37.145022,33.666253 37.547913,36.227354 C 38.494752,36.362628 38.944662,36.672605 39.8915,36.982582 C 40.470243,37.311971 40.662486,38.398406 39.916088,38.553091 C 38.202432,38.513055 36.985706,38.414784 35.272051,38.374748 C 34.61178,37.617701 34.91772,31.428635 33.95381,29.814289 C 33.207764,28.564818 30.391474,27.434956 28.178878,26.066446 C 27.42227,28.012447 26.873465,30.080197 25.909054,31.904447 C 24.918535,33.778082 23.51241,35.408218 22.314089,37.160103 C 23.085075,37.630831 23.414347,37.926856 23.909263,38.630521 C 24.184328,39.467642 24.183322,40.42123 23.464529,40.21013 C 21.825499,39.533155 20.241684,38.739711 18.878727,37.946268 C 18.398189,37.388188 21.99096,33.628683 23.234614,31.089165 C 24.600409,28.300234 24.512895,24.673976 26.375787,22.193858 L 34.664828,11.158436 C 35.069732,12.187244 36.081994,12.808411 37.14947,12.963703 L 34.664828,16.283064 C 39.192397,21.368869 40.408119,19.599301 43.554323,16.457768 z" />
  </g>
  <path
     style="fill:none;fill-opacity:1;fill-rule:nonzero;stroke:none;stroke-width:0;stroke-miterlimit:4;stroke-dasharray:none;stroke-opacity:1"
     d="M 21.839816,39.405882 C 20.545608,38.799309 19.279441,38.125722 18.923655,37.854518 C 18.782647,37.747031 19.242703,37.015196 20.916016,34.685172 C 23.01517,31.762182 23.667339,30.513656 24.209194,28.380638 C 25.004328,25.250581 25.322779,24.221498 25.754189,23.38792 C 26.160901,22.602067 34.472139,11.338475 34.656894,11.322759 C 34.697401,11.319312 34.788935,11.451662 34.860303,11.616867 C 35.019091,11.984429 35.840157,12.600032 36.482017,12.832764 C 36.74327,12.927489 36.957023,13.034157 36.957023,13.069801 C 36.957023,13.105444 36.46586,13.785894 35.86555,14.581915 C 35.265237,15.377936 34.743435,16.113443 34.705984,16.216376 C 34.602317,16.501296 36.896544,18.615231 37.842457,19.106375 C 38.537828,19.46743 38.73229,19.51095 39.438365,19.463531 C 40.102235,19.418945 40.359087,19.327828 40.911636,18.940888 C 41.718706,18.375713 43.641078,16.492558 43.641078,16.26713 C 43.641078,15.981349 44.209185,15.533118 44.571394,15.533118 C 45.042079,15.533118 45.688567,16.264271 45.864585,16.99566 C 46.101198,17.978839 45.531132,18.800752 44.813926,18.51048 C 44.672372,18.45319 44.244766,18.800407 43.385005,19.670765 C 42.458984,20.608196 41.92005,21.036794 41.187495,21.41837 C 40.256847,21.903129 40.165252,21.923935 38.96177,21.923935 C 37.817934,21.923935 37.634625,21.88786 36.894556,21.517118 C 35.96177,21.049834 34.399486,19.76741 33.796513,18.974043 C 33.569952,18.675945 33.339011,18.432045 33.283309,18.432045 C 33.169257,18.432045 29.596531,23.301419 29.666105,23.362035 C 29.690666,23.383432 31.259847,24.623742 33.153178,26.118278 C 35.672657,28.107077 36.648634,28.952922 36.793416,29.27314 C 37.111045,29.975641 37.246408,31.002417 37.327205,33.321992 C 37.419127,35.960902 37.475219,36.352689 37.761127,36.352689 C 38.065976,36.352689 39.764406,36.976055 39.98453,37.168737 C 40.276564,37.424359 40.409404,37.918434 40.26344,38.206088 C 40.115818,38.497009 39.484753,38.527731 36.792649,38.375059 L 35.277218,38.289119 L 35.151001,37.880922 C 35.081583,37.656417 34.937434,36.375749 34.830668,35.034995 C 34.465994,30.455439 34.231538,29.672521 32.957731,28.780767 C 31.816388,27.981752 28.254499,26.042019 28.147978,26.161477 C 28.09361,26.222445 27.726911,27.16177 27.333084,28.248868 C 26.140248,31.541506 25.551524,32.621451 23.165745,35.893367 L 22.242833,37.159069 L 22.54107,37.378096 C 23.363835,37.982344 23.883502,38.619064 23.96399,39.121522 C 24.066013,39.75842 23.950907,40.175094 23.674196,40.170553 C 23.558576,40.168655 22.733106,39.824554 21.839816,39.405883 L 21.839816,39.405882 z"
     id="path2857" />
  <path
     style="fill:none;fill-opacity:1;fill-rule:nonzero;stroke:none;stroke-width:0;stroke-linecap:butt;stroke-miterlimit:4;stroke-dasharray:none;stroke-dashoffset:0;stroke-opacity:0"
     d="M 36.295263,12.161657 C 35.328629,11.653617 34.872114,10.860006 34.878096,9.6980393 C 34.889688,7.4471393 37.585465,6.2758447 39.236192,7.8044809 C 40.383968,8.8673606 40.431272,10.545444 39.344585,11.649522 C 38.459569,12.548705 37.377469,12.730444 36.295261,12.161658 L 36.295263,12.161657 z"
     id="path2859" />
</svg>
