<?xml version="1.0" encoding="UTF-8" standalone="no"?>
<!-- Created with Inkscape (http://www.inkscape.org/) -->
<svg
   xmlns:dc="http://purl.org/dc/elements/1.1/"
   xmlns:cc="http://creativecommons.org/ns#"
   xmlns:rdf="http://www.w3.org/1999/02/22-rdf-syntax-ns#"
   xmlns:svg="http://www.w3.org/2000/svg"
   xmlns="http://www.w3.org/2000/svg"
   xmlns:xlink="http://www.w3.org/1999/xlink"
   xmlns:sodipodi="http://sodipodi.sourceforge.net/DTD/sodipodi-0.dtd"
   xmlns:inkscape="http://www.inkscape.org/namespaces/inkscape"
   width="48"
   height="48"
   id="svg2"
   sodipodi:version="0.32"
   inkscape:version="0.46"
   version="1.0"
   sodipodi:docbase="/home/jimmac/gfx/ximian/tango-icon-theme/scalable/devices"
   sodipodi:docname="stopCompareDatabase.svg"
   inkscape:export-filename="/home/jimmac/gfx/ximian/tango-icon-theme/scalable/devices/media-floppy.png"
   inkscape:export-xdpi="90"
   inkscape:export-ydpi="90"
   inkscape:output_extension="org.inkscape.output.svg.inkscape">
  <defs
     id="defs4">
    <linearGradient
       inkscape:collect="always"
       xlink:href="#linearGradient3196"
       id="linearGradient3409"
       gradientUnits="userSpaceOnUse"
       x1="231"
       y1="528.86218"
       x2="443"
       y2="528.86218" />
    <linearGradient
       inkscape:collect="always"
       xlink:href="#linearGradient7982"
       id="linearGradient3407"
       gradientUnits="userSpaceOnUse"
       x1="4.1461549"
       y1="79.499992"
       x2="215.85385"
       y2="79.499992" />
    <linearGradient
       inkscape:collect="always"
       xlink:href="#linearGradient7982"
       id="linearGradient3405"
       gradientUnits="userSpaceOnUse"
       x1="-1.3348984"
       y1="106.90941"
       x2="210.3728"
       y2="106.90941" />
    <linearGradient
       inkscape:collect="always"
       xlink:href="#linearGradient7982"
       id="linearGradient3403"
       gradientUnits="userSpaceOnUse"
       gradientTransform="translate(-5.481053,2.7405265)"
       x1="4.1461549"
       y1="79.499992"
       x2="215.85385"
       y2="79.499992" />
    <linearGradient
       inkscape:collect="always"
       xlink:href="#linearGradient3196"
       id="linearGradient3401"
       gradientUnits="userSpaceOnUse"
       x1="231"
       y1="528.86218"
       x2="443"
       y2="528.86218" />
    <linearGradient
       inkscape:collect="always"
       xlink:href="#linearGradient7982"
       id="linearGradient3399"
       gradientUnits="userSpaceOnUse"
       x1="4.1461549"
       y1="79.499992"
       x2="215.85385"
       y2="79.499992" />
    <linearGradient
       inkscape:collect="always"
       xlink:href="#linearGradient7982"
       id="linearGradient3397"
       gradientUnits="userSpaceOnUse"
       x1="-1.3348984"
       y1="106.90941"
       x2="210.3728"
       y2="106.90941" />
    <linearGradient
       inkscape:collect="always"
       xlink:href="#linearGradient7982"
       id="linearGradient3395"
       gradientUnits="userSpaceOnUse"
       gradientTransform="translate(-5.481053,2.7405265)"
       x1="4.1461549"
       y1="79.499992"
       x2="215.85385"
       y2="79.499992" />
    <linearGradient
       inkscape:collect="always"
       xlink:href="#linearGradient3196"
       id="linearGradient3383"
       gradientUnits="userSpaceOnUse"
       x1="231"
       y1="528.86218"
       x2="443"
       y2="528.86218" />
    <linearGradient
       inkscape:collect="always"
       xlink:href="#linearGradient7982"
       id="linearGradient3381"
       gradientUnits="userSpaceOnUse"
       x1="4.1461549"
       y1="79.499992"
       x2="215.85385"
       y2="79.499992" />
    <linearGradient
       inkscape:collect="always"
       xlink:href="#linearGradient7982"
       id="linearGradient3379"
       gradientUnits="userSpaceOnUse"
       x1="-1.3348984"
       y1="106.90941"
       x2="210.3728"
       y2="106.90941" />
    <linearGradient
       inkscape:collect="always"
       xlink:href="#linearGradient7982"
       id="linearGradient3377"
       gradientUnits="userSpaceOnUse"
       gradientTransform="translate(-5.481053,2.7405265)"
       x1="4.1461549"
       y1="79.499992"
       x2="215.85385"
       y2="79.499992" />
    <linearGradient
       inkscape:collect="always"
       xlink:href="#linearGradient3196"
       id="linearGradient3375"
       gradientUnits="userSpaceOnUse"
       x1="231"
       y1="528.86218"
       x2="443"
       y2="528.86218" />
    <linearGradient
       inkscape:collect="always"
       xlink:href="#linearGradient7982"
       id="linearGradient3373"
       gradientUnits="userSpaceOnUse"
       x1="4.1461549"
       y1="79.499992"
       x2="215.85385"
       y2="79.499992" />
    <linearGradient
       inkscape:collect="always"
       xlink:href="#linearGradient7982"
       id="linearGradient3371"
       gradientUnits="userSpaceOnUse"
       x1="-1.3348984"
       y1="106.90941"
       x2="210.3728"
       y2="106.90941" />
    <linearGradient
       inkscape:collect="always"
       xlink:href="#linearGradient7982"
       id="linearGradient3369"
       gradientUnits="userSpaceOnUse"
       gradientTransform="translate(-5.481053,2.7405265)"
       x1="4.1461549"
       y1="79.499992"
       x2="215.85385"
       y2="79.499992" />
    <linearGradient
       inkscape:collect="always"
       xlink:href="#linearGradient3196"
       id="linearGradient3220"
       gradientUnits="userSpaceOnUse"
       x1="231"
       y1="528.86218"
       x2="443"
       y2="528.86218" />
    <linearGradient
       inkscape:collect="always"
       xlink:href="#linearGradient7982"
       id="linearGradient3351"
       gradientUnits="userSpaceOnUse"
       x1="4.1461549"
       y1="79.499992"
       x2="215.85385"
       y2="79.499992" />
    <linearGradient
       inkscape:collect="always"
       xlink:href="#linearGradient7982"
       id="linearGradient3308"
       x1="-1.3348984"
       y1="106.90941"
       x2="210.3728"
       y2="106.90941"
       gradientUnits="userSpaceOnUse" />
    <linearGradient
       inkscape:collect="always"
       xlink:href="#linearGradient7982"
       id="linearGradient3258"
       gradientUnits="userSpaceOnUse"
       x1="4.1461549"
       y1="79.499992"
       x2="215.85385"
       y2="79.499992"
       gradientTransform="translate(-5.481053,2.7405265)" />
    <linearGradient
       id="linearGradient3196">
      <stop
         style="stop-color:#000000;stop-opacity:1;"
         offset="0"
         id="stop3198" />
      <stop
         id="stop3208"
         offset="0.5"
         style="stop-color:#151562;stop-opacity:0.5411765;" />
      <stop
         style="stop-color:#6190f8;stop-opacity:0.90980393;"
         offset="1"
         id="stop3200" />
    </linearGradient>
    <linearGradient
       inkscape:collect="always"
       xlink:href="#linearGradient3196"
       id="linearGradient3769"
       gradientUnits="userSpaceOnUse"
       x1="231"
       y1="528.86218"
       x2="443"
       y2="528.86218" />
    <linearGradient
       inkscape:collect="always"
       xlink:href="#linearGradient7982"
       id="linearGradient3337"
       gradientUnits="userSpaceOnUse"
       x1="4.1461549"
       y1="79.499992"
       x2="215.85385"
       y2="79.499992" />
    <linearGradient
       inkscape:collect="always"
       xlink:href="#linearGradient7982"
       id="linearGradient3767"
       gradientUnits="userSpaceOnUse"
       x1="-1.3348984"
       y1="106.90941"
       x2="210.3728"
       y2="106.90941" />
    <linearGradient
       id="linearGradient7982">
      <stop
         id="stop7984"
         offset="0"
         style="stop-color:#fff900;stop-opacity:1;" />
      <stop
         id="stop7986"
         offset="1"
         style="stop-color:#cd3f0a;stop-opacity:1;" />
    </linearGradient>
    <linearGradient
       inkscape:collect="always"
       xlink:href="#linearGradient7982"
       id="linearGradient3765"
       gradientUnits="userSpaceOnUse"
       gradientTransform="translate(-5.481053,2.7405265)"
       x1="4.1461549"
       y1="79.499992"
       x2="215.85385"
       y2="79.499992" />
    <inkscape:perspective
       sodipodi:type="inkscape:persp3d"
       inkscape:vp_x="0 : 24 : 1"
       inkscape:vp_y="0 : 1000 : 0"
       inkscape:vp_z="48 : 24 : 1"
       inkscape:persp3d-origin="24 : 16 : 1"
       id="perspective35" />
    <linearGradient
       inkscape:collect="always"
       id="linearGradient2371">
      <stop
         style="stop-color:#000000;stop-opacity:1;"
         offset="0"
         id="stop2373" />
      <stop
         style="stop-color:#000000;stop-opacity:0;"
         offset="1"
         id="stop2375" />
    </linearGradient>
    <linearGradient
       id="linearGradient2350">
      <stop
         id="stop2352"
         offset="0"
         style="stop-color:#858585;stop-opacity:1;" />
      <stop
         style="stop-color:#cbcbcb;stop-opacity:1;"
         offset="0.5"
         id="stop2356" />
      <stop
         id="stop2354"
         offset="1"
         style="stop-color:#6b6b6b;stop-opacity:1;" />
    </linearGradient>
    <linearGradient
       inkscape:collect="always"
       id="linearGradient2277">
      <stop
         style="stop-color:#ffffff;stop-opacity:1;"
         offset="0"
         id="stop2279" />
      <stop
         style="stop-color:#ffffff;stop-opacity:0;"
         offset="1"
         id="stop2281" />
    </linearGradient>
    <linearGradient
       id="linearGradient2263">
      <stop
         style="stop-color:#1e2d69;stop-opacity:1;"
         offset="0"
         id="stop2265" />
      <stop
         style="stop-color:#78a7e0;stop-opacity:1;"
         offset="1"
         id="stop2267" />
    </linearGradient>
    <linearGradient
       inkscape:collect="always"
       xlink:href="#linearGradient2263"
       id="linearGradient2269"
       x1="40.884724"
       y1="71.869133"
       x2="16.879831"
       y2="-0.38931385"
       gradientUnits="userSpaceOnUse"
       gradientTransform="matrix(0.976612,0.000000,0.000000,1.139789,0.564215,-3.271158)" />
    <linearGradient
       inkscape:collect="always"
       xlink:href="#linearGradient2277"
       id="linearGradient2283"
       x1="13.783585"
       y1="-0.99672896"
       x2="33.074715"
       y2="55.701546"
       gradientUnits="userSpaceOnUse"
       gradientTransform="matrix(0.985432,0.000000,0.000000,1.148179,0.641070,-2.933883)" />
    <linearGradient
       inkscape:collect="always"
       xlink:href="#linearGradient2350"
       id="linearGradient2348"
       x1="20.125"
       y1="21.84375"
       x2="28.5625"
       y2="42.46875"
       gradientUnits="userSpaceOnUse"
       gradientTransform="matrix(1.067698,0.000000,0.000000,1.121532,-1.368937,-5.574460)" />
    <radialGradient
       inkscape:collect="always"
       xlink:href="#linearGradient2371"
       id="radialGradient2377"
       cx="24.3125"
       cy="41.15625"
       fx="24.3125"
       fy="41.15625"
       r="22.875"
       gradientTransform="matrix(1.000000,0.000000,0.000000,0.269126,-1.352272e-16,30.08005)"
       gradientUnits="userSpaceOnUse" />
    <linearGradient
       inkscape:collect="always"
       xlink:href="#linearGradient7982"
       id="linearGradient2477"
       gradientUnits="userSpaceOnUse"
       gradientTransform="translate(-5.481053,2.7405265)"
       x1="4.1461549"
       y1="79.499992"
       x2="215.85385"
       y2="79.499992" />
    <linearGradient
       inkscape:collect="always"
       xlink:href="#linearGradient7982"
       id="linearGradient2479"
       gradientUnits="userSpaceOnUse"
       x1="-1.3348984"
       y1="106.90941"
       x2="210.3728"
       y2="106.90941" />
    <linearGradient
       inkscape:collect="always"
       xlink:href="#linearGradient7982"
       id="linearGradient2481"
       gradientUnits="userSpaceOnUse"
       x1="4.1461549"
       y1="79.499992"
       x2="215.85385"
       y2="79.499992" />
    <linearGradient
       inkscape:collect="always"
       xlink:href="#linearGradient3196"
       id="linearGradient2483"
       gradientUnits="userSpaceOnUse"
       x1="231"
       y1="528.86218"
       x2="443"
       y2="528.86218" />
    <linearGradient
       inkscape:collect="always"
       xlink:href="#linearGradient7982"
       id="linearGradient2485"
       gradientUnits="userSpaceOnUse"
       gradientTransform="translate(-5.481053,2.7405265)"
       x1="4.1461549"
       y1="79.499992"
       x2="215.85385"
       y2="79.499992" />
    <linearGradient
       inkscape:collect="always"
       xlink:href="#linearGradient7982"
       id="linearGradient2487"
       gradientUnits="userSpaceOnUse"
       x1="-1.3348984"
       y1="106.90941"
       x2="210.3728"
       y2="106.90941" />
    <linearGradient
       inkscape:collect="always"
       xlink:href="#linearGradient7982"
       id="linearGradient2489"
       gradientUnits="userSpaceOnUse"
       x1="4.1461549"
       y1="79.499992"
       x2="215.85385"
       y2="79.499992" />
    <linearGradient
       inkscape:collect="always"
       xlink:href="#linearGradient3196"
       id="linearGradient2491"
       gradientUnits="userSpaceOnUse"
       x1="231"
       y1="528.86218"
       x2="443"
       y2="528.86218" />
    <linearGradient
       inkscape:collect="always"
       xlink:href="#linearGradient7982"
       id="linearGradient2493"
       gradientUnits="userSpaceOnUse"
       gradientTransform="translate(-5.481053,2.7405265)"
       x1="4.1461549"
       y1="79.499992"
       x2="215.85385"
       y2="79.499992" />
    <linearGradient
       inkscape:collect="always"
       xlink:href="#linearGradient7982"
       id="linearGradient2495"
       gradientUnits="userSpaceOnUse"
       x1="-1.3348984"
       y1="106.90941"
       x2="210.3728"
       y2="106.90941" />
    <linearGradient
       inkscape:collect="always"
       xlink:href="#linearGradient7982"
       id="linearGradient2497"
       gradientUnits="userSpaceOnUse"
       x1="4.1461549"
       y1="79.499992"
       x2="215.85385"
       y2="79.499992" />
    <linearGradient
       inkscape:collect="always"
       xlink:href="#linearGradient3196"
       id="linearGradient2499"
       gradientUnits="userSpaceOnUse"
       x1="231"
       y1="528.86218"
       x2="443"
       y2="528.86218" />
    <linearGradient
       inkscape:collect="always"
       xlink:href="#linearGradient7982"
       id="linearGradient2501"
       gradientUnits="userSpaceOnUse"
       gradientTransform="translate(-5.481053,2.7405265)"
       x1="4.1461549"
       y1="79.499992"
       x2="215.85385"
       y2="79.499992" />
    <linearGradient
       inkscape:collect="always"
       xlink:href="#linearGradient7982"
       id="linearGradient2503"
       gradientUnits="userSpaceOnUse"
       x1="-1.3348984"
       y1="106.90941"
       x2="210.3728"
       y2="106.90941" />
    <linearGradient
       inkscape:collect="always"
       xlink:href="#linearGradient7982"
       id="linearGradient2505"
       gradientUnits="userSpaceOnUse"
       x1="4.1461549"
       y1="79.499992"
       x2="215.85385"
       y2="79.499992" />
    <linearGradient
       inkscape:collect="always"
       xlink:href="#linearGradient3196"
       id="linearGradient2507"
       gradientUnits="userSpaceOnUse"
       x1="231"
       y1="528.86218"
       x2="443"
       y2="528.86218" />
    <linearGradient
       inkscape:collect="always"
       xlink:href="#linearGradient7982"
       id="linearGradient2509"
       gradientUnits="userSpaceOnUse"
       gradientTransform="translate(-5.481053,2.7405265)"
       x1="4.1461549"
       y1="79.499992"
       x2="215.85385"
       y2="79.499992" />
    <linearGradient
       inkscape:collect="always"
       xlink:href="#linearGradient7982"
       id="linearGradient2511"
       gradientUnits="userSpaceOnUse"
       x1="-1.3348984"
       y1="106.90941"
       x2="210.3728"
       y2="106.90941" />
    <linearGradient
       inkscape:collect="always"
       xlink:href="#linearGradient7982"
       id="linearGradient2513"
       gradientUnits="userSpaceOnUse"
       x1="4.1461549"
       y1="79.499992"
       x2="215.85385"
       y2="79.499992" />
    <linearGradient
       inkscape:collect="always"
       xlink:href="#linearGradient3196"
       id="linearGradient2515"
       gradientUnits="userSpaceOnUse"
       x1="231"
       y1="528.86218"
       x2="443"
       y2="528.86218" />
    <linearGradient
       inkscape:collect="always"
       xlink:href="#linearGradient7982"
       id="linearGradient2517"
       gradientUnits="userSpaceOnUse"
       gradientTransform="translate(-5.481053,2.7405265)"
       x1="4.1461549"
       y1="79.499992"
       x2="215.85385"
       y2="79.499992" />
    <linearGradient
       inkscape:collect="always"
       xlink:href="#linearGradient7982"
       id="linearGradient2519"
       gradientUnits="userSpaceOnUse"
       x1="-1.3348984"
       y1="106.90941"
       x2="210.3728"
       y2="106.90941" />
    <linearGradient
       inkscape:collect="always"
       xlink:href="#linearGradient7982"
       id="linearGradient2521"
       gradientUnits="userSpaceOnUse"
       x1="4.1461549"
       y1="79.499992"
       x2="215.85385"
       y2="79.499992" />
    <linearGradient
       inkscape:collect="always"
       xlink:href="#linearGradient3196"
       id="linearGradient2523"
       gradientUnits="userSpaceOnUse"
       x1="231"
       y1="528.86218"
       x2="443"
       y2="528.86218" />
    <inkscape:perspective
       sodipodi:type="inkscape:persp3d"
       inkscape:vp_x="0 : 0.5 : 1"
       inkscape:vp_y="0 : 1000 : 0"
       inkscape:vp_z="1 : 0.5 : 1"
       inkscape:persp3d-origin="0.5 : 0.33333333 : 1"
       id="perspective2893" />
    <radialGradient
       r="19.967958"
       fy="12.592707"
       fx="20.935379"
       cy="12.592707"
       cx="20.935379"
       gradientTransform="matrix(-1.262871,2.796553e-2,-3.606716e-2,-1.629656,-22.068767,22.450046)"
       gradientUnits="userSpaceOnUse"
       id="radialGradient3096"
       xlink:href="#linearGradient2251"
       inkscape:collect="always" />
    <radialGradient
       r="19.967958"
       fy="12.592707"
       fx="20.935379"
       cy="12.592707"
       cx="20.935379"
       gradientTransform="matrix(-1.262871,0.02796553,-0.03606716,-1.629656,-22.068767,22.450046)"
       gradientUnits="userSpaceOnUse"
       id="radialGradient3084"
       xlink:href="#linearGradient2251"
       inkscape:collect="always" />
    <radialGradient
       r="9.6875"
       fy="25.53125"
       fx="17.3125"
       cy="25.53125"
       cx="17.3125"
       gradientTransform="matrix(1,0,0,0.351613,0,16.55413)"
       gradientUnits="userSpaceOnUse"
       id="radialGradient3082"
       xlink:href="#linearGradient3101-8"
       inkscape:collect="always" />
    <linearGradient
       id="linearGradient2251"
       inkscape:collect="always">
      <stop
         id="stop2253"
         offset="0"
         style="stop-color:#ef2929" />
      <stop
         id="stop2255"
         offset="1"
         style="stop-color:#cc0000" />
    </linearGradient>
    <radialGradient
       inkscape:collect="always"
       xlink:href="#linearGradient2251"
       id="radialGradient2455"
       gradientUnits="userSpaceOnUse"
       gradientTransform="matrix(-1.262871,0.02796553,-0.03606716,-1.629656,-22.068767,22.450046)"
       cx="20.935379"
       cy="12.592707"
       fx="20.935379"
       fy="12.592707"
       r="19.967958" />
    <inkscape:perspective
       sodipodi:type="inkscape:persp3d"
       inkscape:vp_x="0 : 16 : 1"
       inkscape:vp_y="0 : 1000 : 0"
       inkscape:vp_z="32 : 16 : 1"
       inkscape:persp3d-origin="16 : 10.666667 : 1"
       id="perspective20-3" />
    <linearGradient
       inkscape:collect="always"
       id="linearGradient3101-8">
      <stop
         style="stop-color:#000000;stop-opacity:1;"
         offset="0"
         id="stop3103-0" />
      <stop
         style="stop-color:#000000;stop-opacity:0;"
         offset="1"
         id="stop3105-2" />
    </linearGradient>
    <radialGradient
       inkscape:collect="always"
       xlink:href="#linearGradient3101-8"
       id="radialGradient3107-4"
       cx="17.3125"
       cy="25.53125"
       fx="17.3125"
       fy="25.53125"
       r="9.6875"
       gradientTransform="matrix(1,0,0,0.351613,0,16.55413)"
       gradientUnits="userSpaceOnUse" />
    <radialGradient
       gradientUnits="userSpaceOnUse"
       gradientTransform="matrix(1,0,0,0.351613,0,16.55413)"
       r="9.6875"
       fy="25.53125"
       fx="17.3125"
       cy="25.53125"
       cx="17.3125"
       id="radialGradient1352-8"
       xlink:href="#linearGradient3101-8"
       inkscape:collect="always" />
    <radialGradient
       inkscape:collect="always"
       xlink:href="#linearGradient3101-8"
       id="radialGradient1366-3"
       gradientUnits="userSpaceOnUse"
       gradientTransform="matrix(1,0,0,0.351613,0,16.55413)"
       cx="17.3125"
       cy="25.53125"
       fx="17.3125"
       fy="25.53125"
       r="9.6875" />
    <radialGradient
       gradientUnits="userSpaceOnUse"
       gradientTransform="matrix(1,0,0,0.351613,0,16.55413)"
       r="9.6875"
       fy="25.53125"
       fx="17.3125"
       cy="25.53125"
       cx="17.3125"
       id="radialGradient1337-9"
       xlink:href="#linearGradient3101-8"
       inkscape:collect="always" />
    <radialGradient
       gradientUnits="userSpaceOnUse"
       gradientTransform="matrix(1,0,0,0.351613,0,16.55413)"
       r="9.6875"
       fy="25.53125"
       fx="17.3125"
       cy="25.53125"
       cx="17.3125"
       id="radialGradient1336-0"
       xlink:href="#linearGradient3101-8"
       inkscape:collect="always" />
    <radialGradient
       inkscape:collect="always"
       xlink:href="#linearGradient3101-8"
       id="radialGradient2413"
       gradientUnits="userSpaceOnUse"
       gradientTransform="matrix(1,0,0,0.351613,0,16.55413)"
       cx="17.3125"
       cy="25.53125"
       fx="17.3125"
       fy="25.53125"
       r="9.6875" />
    <radialGradient
       inkscape:collect="always"
       xlink:href="#linearGradient2251"
       id="radialGradient2414"
       gradientUnits="userSpaceOnUse"
       gradientTransform="matrix(-1.262871,0.02796553,-0.03606716,-1.629656,-22.068767,22.450046)"
       cx="20.935379"
       cy="12.592707"
       fx="20.935379"
       fy="12.592707"
       r="19.967958" />
    <radialGradient
       inkscape:collect="always"
       xlink:href="#linearGradient3101-8"
       id="radialGradient3086"
       gradientUnits="userSpaceOnUse"
       gradientTransform="matrix(1,0,0,0.351613,0,16.55413)"
       cx="17.3125"
       cy="25.53125"
       fx="17.3125"
       fy="25.53125"
       r="9.6875" />
    <radialGradient
       inkscape:collect="always"
       xlink:href="#linearGradient2251"
       id="radialGradient3088"
       gradientUnits="userSpaceOnUse"
       gradientTransform="matrix(-1.262871,0.02796553,-0.03606716,-1.629656,-22.068767,22.450046)"
       cx="20.935379"
       cy="12.592707"
       fx="20.935379"
       fy="12.592707"
       r="19.967958" />
    <radialGradient
       r="9.6875"
       fy="25.53125"
       fx="17.3125"
       cy="25.53125"
       cx="17.3125"
       gradientTransform="matrix(1,0,0,0.351613,0,16.55413)"
       gradientUnits="userSpaceOnUse"
       id="radialGradient2930"
       xlink:href="#linearGradient3101"
       inkscape:collect="always" />
    <radialGradient
       inkscape:collect="always"
       xlink:href="#linearGradient3101"
       id="radialGradient1336"
       cx="17.3125"
       cy="25.53125"
       fx="17.3125"
       fy="25.53125"
       r="9.6875"
       gradientTransform="matrix(1,0,0,0.351613,0,16.55413)"
       gradientUnits="userSpaceOnUse" />
    <radialGradient
       inkscape:collect="always"
       xlink:href="#linearGradient3101"
       id="radialGradient1337"
       cx="17.3125"
       cy="25.53125"
       fx="17.3125"
       fy="25.53125"
       r="9.6875"
       gradientTransform="matrix(1,0,0,0.351613,0,16.55413)"
       gradientUnits="userSpaceOnUse" />
    <radialGradient
       inkscape:collect="always"
       xlink:href="#linearGradient3101"
       id="radialGradient1352"
       cx="17.3125"
       cy="25.53125"
       fx="17.3125"
       fy="25.53125"
       r="9.6875"
       gradientTransform="matrix(1,0,0,0.351613,0,16.55413)"
       gradientUnits="userSpaceOnUse" />
    <radialGradient
       gradientUnits="userSpaceOnUse"
       gradientTransform="matrix(1,0,0,0.351613,0,16.55413)"
       r="9.6875"
       fy="25.53125"
       fx="17.3125"
       cy="25.53125"
       cx="17.3125"
       id="radialGradient3107"
       xlink:href="#linearGradient3101"
       inkscape:collect="always" />
    <linearGradient
       id="linearGradient3101"
       inkscape:collect="always">
      <stop
         id="stop3103"
         offset="0"
         style="stop-color:#000000;stop-opacity:1;" />
      <stop
         id="stop3105"
         offset="1"
         style="stop-color:#000000;stop-opacity:0;" />
    </linearGradient>
    <inkscape:perspective
       id="perspective20"
       inkscape:persp3d-origin="16 : 10.666667 : 1"
       inkscape:vp_z="32 : 16 : 1"
       inkscape:vp_y="0 : 1000 : 0"
       inkscape:vp_x="0 : 16 : 1"
       sodipodi:type="inkscape:persp3d" />
  </defs>
  <sodipodi:namedview
     id="base"
     pagecolor="#efefef"
     bordercolor="#666666"
     borderopacity="1.0"
     inkscape:pageopacity="0"
     inkscape:pageshadow="2"
     inkscape:zoom="2"
     inkscape:cx="31.227924"
     inkscape:cy="12.051702"
     inkscape:document-units="px"
     inkscape:current-layer="layer1"
     inkscape:showpageshadow="false"
     showborder="true"
     borderlayer="top"
     showgrid="false"
     inkscape:grid-points="false"
     inkscape:window-width="573"
     inkscape:window-height="667"
     inkscape:window-x="2156"
     inkscape:window-y="446">
    <inkscape:grid
       id="GridFromPre046Settings"
       type="xygrid"
       originx="0px"
       originy="0px"
       spacingx="1px"
       spacingy="1px"
       color="#9f9f9f"
       empcolor="#9f9f9f"
       opacity="0.10196078"
       empopacity="0.25490196"
       empspacing="10" />
  </sodipodi:namedview>
  <metadata
     id="metadata7">
    <rdf:RDF>
      <cc:Work
         rdf:about="">
        <dc:format>image/svg+xml</dc:format>
        <dc:type
           rdf:resource="http://purl.org/dc/dcmitype/StillImage" />
        <dc:title>Media Floppy</dc:title>
        <dc:creator>
          <cc:Agent>
            <dc:title>Tuomas Kuosmanen</dc:title>
          </cc:Agent>
        </dc:creator>
        <dc:source>http://www.tango-project.org</dc:source>
        <dc:subject>
          <rdf:Bag>
            <rdf:li>save</rdf:li>
            <rdf:li>document</rdf:li>
            <rdf:li>store</rdf:li>
            <rdf:li>file</rdf:li>
            <rdf:li>io</rdf:li>
            <rdf:li>floppy</rdf:li>
            <rdf:li>media</rdf:li>
          </rdf:Bag>
        </dc:subject>
        <dc:contributor>
          <cc:Agent>
            <dc:title>Jakub Steiner</dc:title>
          </cc:Agent>
        </dc:contributor>
        <cc:license
           rdf:resource="http://creativecommons.org/licenses/by-sa/2.0/" />
      </cc:Work>
      <cc:License
         rdf:about="http://creativecommons.org/licenses/by-sa/2.0/">
        <cc:permits
           rdf:resource="http://web.resource.org/cc/Reproduction" />
        <cc:permits
           rdf:resource="http://web.resource.org/cc/Distribution" />
        <cc:requires
           rdf:resource="http://web.resource.org/cc/Notice" />
        <cc:requires
           rdf:resource="http://web.resource.org/cc/Attribution" />
        <cc:permits
           rdf:resource="http://web.resource.org/cc/DerivativeWorks" />
        <cc:requires
           rdf:resource="http://web.resource.org/cc/ShareAlike" />
      </cc:License>
    </rdf:RDF>
  </metadata>
  <g
     inkscape:label="Layer 1"
     inkscape:groupmode="layer"
     id="layer1">
    <path
       sodipodi:type="arc"
       style="opacity:0.50568182;fill:url(#radialGradient2377);fill-opacity:1;stroke:none;stroke-width:1.00483322;stroke-linecap:butt;stroke-linejoin:miter;stroke-miterlimit:4;stroke-dasharray:none;stroke-dashoffset:0;stroke-opacity:1"
       id="path2361"
       sodipodi:cx="24.3125"
       sodipodi:cy="41.15625"
       sodipodi:rx="22.875"
       sodipodi:ry="6.15625"
       d="M 47.1875 41.15625 A 22.875 6.15625 0 1 1  1.4375,41.15625 A 22.875 6.15625 0 1 1  47.1875 41.15625 z"
       transform="matrix(0.918032,0.000000,0.000000,0.981221,1.680328,0.647887)" />
    <g
       id="g3411"
       transform="matrix(9.9040269e-2,0,0,9.2752177e-2,25.784126,31.552875)">
      <g
         id="g3353">
        <path
           style="fill:url(#linearGradient3765);fill-opacity:1;stroke:url(#linearGradient3767);stroke-width:0.7076906;stroke-opacity:1"
           id="path7240"
           d="M 104.51895,54.072262 C 104.30794,54.072262 104.10467,54.087291 103.89395,54.087912 L -0.981053,54.087912 L -0.981053,103.87315 L -0.668553,103.87315 C -0.783763,104.88394 -0.981053,105.88425 -0.981053,106.90941 C -0.981053,136.07551 46.282947,159.74655 104.51895,159.74655 C 162.75495,159.74655 210.01895,136.07551 210.01895,106.90941 C 210.01895,105.88425 209.82166,104.88394 209.70645,103.87315 L 210.01895,103.87315 L 210.01895,54.087912 L 105.14395,54.087912 C 104.93323,54.087291 104.72996,54.072262 104.51895,54.072262 z" />
        <path
           transform="matrix(1,0,0,0.500826,-232.48105,-207.2963)"
           style="fill:url(#linearGradient3337);fill-opacity:1;stroke:url(#linearGradient3769);stroke-opacity:1"
           sodipodi:type="arc"
           sodipodi:ry="105.5"
           sodipodi:rx="105.5"
           sodipodi:cy="528.86218"
           sodipodi:cx="337"
           id="path5773"
           d="M 442.5,528.86218 A 105.5,105.5 0 1 1 231.5,528.86218 A 105.5,105.5 0 1 1 442.5,528.86218 z" />
        <path
           d="M 104.51895,54.072262 C 104.30794,54.072262 104.10467,54.087291 103.89395,54.087912 L -0.981053,54.087912 L -0.981053,103.87315 L -0.668553,103.87315 C -0.783763,104.88394 -0.981053,105.88425 -0.981053,106.90941 C -0.981053,136.07551 46.282947,159.74655 104.51895,159.74655 C 162.75495,159.74655 210.01895,136.07551 210.01895,106.90941 C 210.01895,105.88425 209.82166,104.88394 209.70645,103.87315 L 210.01895,103.87315 L 210.01895,54.087912 L 105.14395,54.087912 C 104.93323,54.087291 104.72996,54.072262 104.51895,54.072262 z"
           id="path3339"
           style="fill:url(#linearGradient3258);fill-opacity:1;stroke:url(#linearGradient3308);stroke-width:0.7076906;stroke-opacity:1" />
        <path
           d="M 442.5,528.86218 A 105.5,105.5 0 1 1 231.5,528.86218 A 105.5,105.5 0 1 1 442.5,528.86218 z"
           id="path3341"
           sodipodi:cx="337"
           sodipodi:cy="528.86218"
           sodipodi:rx="105.5"
           sodipodi:ry="105.5"
           sodipodi:type="arc"
           style="fill:url(#linearGradient3351);fill-opacity:1;stroke:url(#linearGradient3220);stroke-opacity:1"
           transform="matrix(1,0,0,0.500826,-232.48105,-207.2963)" />
      </g>
      <g
         transform="translate(-2.7405265,-76.734743)"
         id="g3359">
        <path
           d="M 104.51895,54.072262 C 104.30794,54.072262 104.10467,54.087291 103.89395,54.087912 L -0.981053,54.087912 L -0.981053,103.87315 L -0.668553,103.87315 C -0.783763,104.88394 -0.981053,105.88425 -0.981053,106.90941 C -0.981053,136.07551 46.282947,159.74655 104.51895,159.74655 C 162.75495,159.74655 210.01895,136.07551 210.01895,106.90941 C 210.01895,105.88425 209.82166,104.88394 209.70645,103.87315 L 210.01895,103.87315 L 210.01895,54.087912 L 105.14395,54.087912 C 104.93323,54.087291 104.72996,54.072262 104.51895,54.072262 z"
           id="path3361"
           style="fill:url(#linearGradient3369);fill-opacity:1;stroke:url(#linearGradient3371);stroke-width:0.7076906;stroke-opacity:1" />
        <path
           d="M 442.5,528.86218 A 105.5,105.5 0 1 1 231.5,528.86218 A 105.5,105.5 0 1 1 442.5,528.86218 z"
           id="path3363"
           sodipodi:cx="337"
           sodipodi:cy="528.86218"
           sodipodi:rx="105.5"
           sodipodi:ry="105.5"
           sodipodi:type="arc"
           style="fill:url(#linearGradient3373);fill-opacity:1;stroke:url(#linearGradient3375);stroke-opacity:1"
           transform="matrix(1,0,0,0.500826,-232.48105,-207.2963)" />
        <path
           style="fill:url(#linearGradient3377);fill-opacity:1;stroke:url(#linearGradient3379);stroke-width:0.7076906;stroke-opacity:1"
           id="path3365"
           d="M 104.51895,54.072262 C 104.30794,54.072262 104.10467,54.087291 103.89395,54.087912 L -0.981053,54.087912 L -0.981053,103.87315 L -0.668553,103.87315 C -0.783763,104.88394 -0.981053,105.88425 -0.981053,106.90941 C -0.981053,136.07551 46.282947,159.74655 104.51895,159.74655 C 162.75495,159.74655 210.01895,136.07551 210.01895,106.90941 C 210.01895,105.88425 209.82166,104.88394 209.70645,103.87315 L 210.01895,103.87315 L 210.01895,54.087912 L 105.14395,54.087912 C 104.93323,54.087291 104.72996,54.072262 104.51895,54.072262 z" />
        <path
           transform="matrix(1,0,0,0.500826,-232.48105,-207.2963)"
           style="fill:url(#linearGradient3381);fill-opacity:1;stroke:url(#linearGradient3383);stroke-opacity:1"
           sodipodi:type="arc"
           sodipodi:ry="105.5"
           sodipodi:rx="105.5"
           sodipodi:cy="528.86218"
           sodipodi:cx="337"
           id="path3367"
           d="M 442.5,528.86218 A 105.5,105.5 0 1 1 231.5,528.86218 A 105.5,105.5 0 1 1 442.5,528.86218 z" />
      </g>
      <g
         id="g3385"
         transform="translate(-2.7405265,-154.83975)">
        <path
           style="fill:url(#linearGradient3395);fill-opacity:1;stroke:url(#linearGradient3397);stroke-width:0.7076906;stroke-opacity:1"
           id="path3387"
           d="M 104.51895,54.072262 C 104.30794,54.072262 104.10467,54.087291 103.89395,54.087912 L -0.981053,54.087912 L -0.981053,103.87315 L -0.668553,103.87315 C -0.783763,104.88394 -0.981053,105.88425 -0.981053,106.90941 C -0.981053,136.07551 46.282947,159.74655 104.51895,159.74655 C 162.75495,159.74655 210.01895,136.07551 210.01895,106.90941 C 210.01895,105.88425 209.82166,104.88394 209.70645,103.87315 L 210.01895,103.87315 L 210.01895,54.087912 L 105.14395,54.087912 C 104.93323,54.087291 104.72996,54.072262 104.51895,54.072262 z" />
        <path
           transform="matrix(1,0,0,0.500826,-232.48105,-207.2963)"
           style="fill:url(#linearGradient3399);fill-opacity:1;stroke:url(#linearGradient3401);stroke-opacity:1"
           sodipodi:type="arc"
           sodipodi:ry="105.5"
           sodipodi:rx="105.5"
           sodipodi:cy="528.86218"
           sodipodi:cx="337"
           id="path3389"
           d="M 442.5,528.86218 A 105.5,105.5 0 1 1 231.5,528.86218 A 105.5,105.5 0 1 1 442.5,528.86218 z" />
        <path
           d="M 104.51895,54.072262 C 104.30794,54.072262 104.10467,54.087291 103.89395,54.087912 L -0.981053,54.087912 L -0.981053,103.87315 L -0.668553,103.87315 C -0.783763,104.88394 -0.981053,105.88425 -0.981053,106.90941 C -0.981053,136.07551 46.282947,159.74655 104.51895,159.74655 C 162.75495,159.74655 210.01895,136.07551 210.01895,106.90941 C 210.01895,105.88425 209.82166,104.88394 209.70645,103.87315 L 210.01895,103.87315 L 210.01895,54.087912 L 105.14395,54.087912 C 104.93323,54.087291 104.72996,54.072262 104.51895,54.072262 z"
           id="path3391"
           style="fill:url(#linearGradient3403);fill-opacity:1;stroke:url(#linearGradient3405);stroke-width:0.7076906;stroke-opacity:1" />
        <path
           d="M 442.5,528.86218 A 105.5,105.5 0 1 1 231.5,528.86218 A 105.5,105.5 0 1 1 442.5,528.86218 z"
           id="path3393"
           sodipodi:cx="337"
           sodipodi:cy="528.86218"
           sodipodi:rx="105.5"
           sodipodi:ry="105.5"
           sodipodi:type="arc"
           style="fill:url(#linearGradient3407);fill-opacity:1;stroke:url(#linearGradient3409);stroke-opacity:1"
           transform="matrix(1,0,0,0.500826,-232.48105,-207.2963)" />
      </g>
    </g>
    <g
       id="g2445"
       transform="matrix(9.9040269e-2,0,0,9.2752177e-2,2.534126,15.052875)">
      <g
         id="g2447">
        <path
           style="fill:url(#linearGradient2477);fill-opacity:1;stroke:url(#linearGradient2479);stroke-width:0.7076906;stroke-opacity:1"
           id="path2449"
           d="M 104.51895,54.072262 C 104.30794,54.072262 104.10467,54.087291 103.89395,54.087912 L -0.981053,54.087912 L -0.981053,103.87315 L -0.668553,103.87315 C -0.783763,104.88394 -0.981053,105.88425 -0.981053,106.90941 C -0.981053,136.07551 46.282947,159.74655 104.51895,159.74655 C 162.75495,159.74655 210.01895,136.07551 210.01895,106.90941 C 210.01895,105.88425 209.82166,104.88394 209.70645,103.87315 L 210.01895,103.87315 L 210.01895,54.087912 L 105.14395,54.087912 C 104.93323,54.087291 104.72996,54.072262 104.51895,54.072262 z" />
        <path
           transform="matrix(1,0,0,0.500826,-232.48105,-207.2963)"
           style="fill:url(#linearGradient2481);fill-opacity:1;stroke:url(#linearGradient2483);stroke-opacity:1"
           sodipodi:type="arc"
           sodipodi:ry="105.5"
           sodipodi:rx="105.5"
           sodipodi:cy="528.86218"
           sodipodi:cx="337"
           id="path2451"
           d="M 442.5,528.86218 A 105.5,105.5 0 1 1 231.5,528.86218 A 105.5,105.5 0 1 1 442.5,528.86218 z" />
        <path
           d="M 104.51895,54.072262 C 104.30794,54.072262 104.10467,54.087291 103.89395,54.087912 L -0.981053,54.087912 L -0.981053,103.87315 L -0.668553,103.87315 C -0.783763,104.88394 -0.981053,105.88425 -0.981053,106.90941 C -0.981053,136.07551 46.282947,159.74655 104.51895,159.74655 C 162.75495,159.74655 210.01895,136.07551 210.01895,106.90941 C 210.01895,105.88425 209.82166,104.88394 209.70645,103.87315 L 210.01895,103.87315 L 210.01895,54.087912 L 105.14395,54.087912 C 104.93323,54.087291 104.72996,54.072262 104.51895,54.072262 z"
           id="path2453"
           style="fill:url(#linearGradient2485);fill-opacity:1;stroke:url(#linearGradient2487);stroke-width:0.7076906;stroke-opacity:1" />
        <path
           d="M 442.5,528.86218 A 105.5,105.5 0 1 1 231.5,528.86218 A 105.5,105.5 0 1 1 442.5,528.86218 z"
           id="path2455"
           sodipodi:cx="337"
           sodipodi:cy="528.86218"
           sodipodi:rx="105.5"
           sodipodi:ry="105.5"
           sodipodi:type="arc"
           style="fill:url(#linearGradient2489);fill-opacity:1;stroke:url(#linearGradient2491);stroke-opacity:1"
           transform="matrix(1,0,0,0.500826,-232.48105,-207.2963)" />
      </g>
      <g
         transform="translate(-2.7405265,-76.734743)"
         id="g2457">
        <path
           d="M 104.51895,54.072262 C 104.30794,54.072262 104.10467,54.087291 103.89395,54.087912 L -0.981053,54.087912 L -0.981053,103.87315 L -0.668553,103.87315 C -0.783763,104.88394 -0.981053,105.88425 -0.981053,106.90941 C -0.981053,136.07551 46.282947,159.74655 104.51895,159.74655 C 162.75495,159.74655 210.01895,136.07551 210.01895,106.90941 C 210.01895,105.88425 209.82166,104.88394 209.70645,103.87315 L 210.01895,103.87315 L 210.01895,54.087912 L 105.14395,54.087912 C 104.93323,54.087291 104.72996,54.072262 104.51895,54.072262 z"
           id="path2459"
           style="fill:url(#linearGradient2493);fill-opacity:1;stroke:url(#linearGradient2495);stroke-width:0.7076906;stroke-opacity:1" />
        <path
           d="M 442.5,528.86218 A 105.5,105.5 0 1 1 231.5,528.86218 A 105.5,105.5 0 1 1 442.5,528.86218 z"
           id="path2461"
           sodipodi:cx="337"
           sodipodi:cy="528.86218"
           sodipodi:rx="105.5"
           sodipodi:ry="105.5"
           sodipodi:type="arc"
           style="fill:url(#linearGradient2497);fill-opacity:1;stroke:url(#linearGradient2499);stroke-opacity:1"
           transform="matrix(1,0,0,0.500826,-232.48105,-207.2963)" />
        <path
           style="fill:url(#linearGradient2501);fill-opacity:1;stroke:url(#linearGradient2503);stroke-width:0.7076906;stroke-opacity:1"
           id="path2463"
           d="M 104.51895,54.072262 C 104.30794,54.072262 104.10467,54.087291 103.89395,54.087912 L -0.981053,54.087912 L -0.981053,103.87315 L -0.668553,103.87315 C -0.783763,104.88394 -0.981053,105.88425 -0.981053,106.90941 C -0.981053,136.07551 46.282947,159.74655 104.51895,159.74655 C 162.75495,159.74655 210.01895,136.07551 210.01895,106.90941 C 210.01895,105.88425 209.82166,104.88394 209.70645,103.87315 L 210.01895,103.87315 L 210.01895,54.087912 L 105.14395,54.087912 C 104.93323,54.087291 104.72996,54.072262 104.51895,54.072262 z" />
        <path
           transform="matrix(1,0,0,0.500826,-232.48105,-207.2963)"
           style="fill:url(#linearGradient2505);fill-opacity:1;stroke:url(#linearGradient2507);stroke-opacity:1"
           sodipodi:type="arc"
           sodipodi:ry="105.5"
           sodipodi:rx="105.5"
           sodipodi:cy="528.86218"
           sodipodi:cx="337"
           id="path2465"
           d="M 442.5,528.86218 A 105.5,105.5 0 1 1 231.5,528.86218 A 105.5,105.5 0 1 1 442.5,528.86218 z" />
      </g>
      <g
         id="g2467"
         transform="translate(-2.7405265,-154.83975)">
        <path
           style="fill:url(#linearGradient2509);fill-opacity:1;stroke:url(#linearGradient2511);stroke-width:0.7076906;stroke-opacity:1"
           id="path2469"
           d="M 104.51895,54.072262 C 104.30794,54.072262 104.10467,54.087291 103.89395,54.087912 L -0.981053,54.087912 L -0.981053,103.87315 L -0.668553,103.87315 C -0.783763,104.88394 -0.981053,105.88425 -0.981053,106.90941 C -0.981053,136.07551 46.282947,159.74655 104.51895,159.74655 C 162.75495,159.74655 210.01895,136.07551 210.01895,106.90941 C 210.01895,105.88425 209.82166,104.88394 209.70645,103.87315 L 210.01895,103.87315 L 210.01895,54.087912 L 105.14395,54.087912 C 104.93323,54.087291 104.72996,54.072262 104.51895,54.072262 z" />
        <path
           transform="matrix(1,0,0,0.500826,-232.48105,-207.2963)"
           style="fill:url(#linearGradient2513);fill-opacity:1;stroke:url(#linearGradient2515);stroke-opacity:1"
           sodipodi:type="arc"
           sodipodi:ry="105.5"
           sodipodi:rx="105.5"
           sodipodi:cy="528.86218"
           sodipodi:cx="337"
           id="path2471"
           d="M 442.5,528.86218 A 105.5,105.5 0 1 1 231.5,528.86218 A 105.5,105.5 0 1 1 442.5,528.86218 z" />
        <path
           d="M 104.51895,54.072262 C 104.30794,54.072262 104.10467,54.087291 103.89395,54.087912 L -0.981053,54.087912 L -0.981053,103.87315 L -0.668553,103.87315 C -0.783763,104.88394 -0.981053,105.88425 -0.981053,106.90941 C -0.981053,136.07551 46.282947,159.74655 104.51895,159.74655 C 162.75495,159.74655 210.01895,136.07551 210.01895,106.90941 C 210.01895,105.88425 209.82166,104.88394 209.70645,103.87315 L 210.01895,103.87315 L 210.01895,54.087912 L 105.14395,54.087912 C 104.93323,54.087291 104.72996,54.072262 104.51895,54.072262 z"
           id="path2473"
           style="fill:url(#linearGradient2517);fill-opacity:1;stroke:url(#linearGradient2519);stroke-width:0.7076906;stroke-opacity:1" />
        <path
           d="M 442.5,528.86218 A 105.5,105.5 0 1 1 231.5,528.86218 A 105.5,105.5 0 1 1 442.5,528.86218 z"
           id="path2475"
           sodipodi:cx="337"
           sodipodi:cy="528.86218"
           sodipodi:rx="105.5"
           sodipodi:ry="105.5"
           sodipodi:type="arc"
           style="fill:url(#linearGradient2521);fill-opacity:1;stroke:url(#linearGradient2523);stroke-opacity:1"
           transform="matrix(1,0,0,0.500826,-232.48105,-207.2963)" />
      </g>
    </g>
    <text
       xml:space="preserve"
       style="font-size:28px;font-style:normal;font-weight:bold;fill:#0000ff;fill-opacity:1;stroke:none;stroke-width:1px;stroke-linecap:butt;stroke-linejoin:miter;stroke-opacity:1;font-family:Bitstream Vera Sans;-inkscape-font-specification:Sans Bold"
       x="12"
       y="38.5"
       id="text2525"><tspan
         sodipodi:role="line"
         id="tspan2527"
         x="12"
         y="38.5"
         style="font-size:40px">?</tspan></text>
    <g
       id="g2449"
       transform="matrix(0.7459433,0,0,0.7521086,64.48827,23.061892)">
      <path
         id="path1314"
         d="M -45.399571,-10.47574 C -56.145813,-10.47574 -64.86753,-1.753678 -64.867529,8.99301 C -64.867529,19.739697 -56.145812,28.461759 -45.399571,28.46176 C -34.653329,28.46176 -25.931611,19.739696 -25.931612,8.99301 C -25.931612,-1.753677 -34.653329,-10.47574 -45.399571,-10.47574 L -45.399571,-10.47574 z M -45.430871,-5.5694904 C -37.385496,-5.5694904 -30.845551,0.94316 -30.845551,8.96176 C -30.845551,11.934044 -31.777415,14.68955 -33.31817,16.99301 L -53.474705,-3.13199 C -51.162708,-4.6664304 -48.412835,-5.5694904 -45.430871,-5.5694904 L -45.430871,-5.5694904 z M -57.167983,0.39926 L -36.854952,20.68051 C -39.268703,22.443003 -42.213849,23.49301 -45.43087,23.49301 C -53.476246,23.49301 -60.016189,16.98036 -60.016189,8.96176 C -60.016189,5.755446 -58.937426,2.803917 -57.167983,0.39926 L -57.167983,0.39926 z"
         style="fill:url(#radialGradient3096);fill-opacity:1;stroke:#a40000;stroke-width:0.99999982;stroke-linecap:round;stroke-linejoin:miter;stroke-miterlimit:4;stroke-dasharray:none;stroke-dashoffset:0;stroke-opacity:1" />
      <path
         transform="matrix(1.007576,0,0,1.019157,-74.003581,-18.773872)"
         d="M 46.714287,27.214285 A 18.357143,18.142857 0 1 1 10,27.214285 A 18.357143,18.142857 0 1 1 46.714287,27.214285 z"
         sodipodi:ry="18.142857"
         sodipodi:rx="18.357143"
         sodipodi:cy="27.214285"
         sodipodi:cx="28.357143"
         id="path2242"
         style="opacity:0.55376371;fill:none;stroke:#ffffff;stroke-width:0.986826;stroke-linecap:round;stroke-linejoin:miter;stroke-miterlimit:4;stroke-dasharray:none;stroke-dashoffset:0;stroke-opacity:1"
         sodipodi:type="arc" />
      <path
         sodipodi:nodetypes="cc"
         id="path2261"
         d="M -54.360184,-2.681097 L -33.788755,17.890332"
         style="opacity:0.47849462;fill:none;stroke:#ffffff;stroke-width:1px;stroke-linecap:round;stroke-linejoin:miter;stroke-opacity:1" />
      <path
         sodipodi:nodetypes="cccccccccccccc"
         id="path2263"
         d="M -65.003041,5.747474 C -64.979231,7.93795 -59.598279,6.414141 -59.57447,7.604617 C -59.62209,5.795093 -57.598279,1.914141 -57.145898,1.104617 L -48.503041,9.46176 C -48.550661,7.723665 -42.312564,9.342713 -42.431611,7.46176 L -52.717326,-3.181097 C -51.193516,-3.966811 -47.598278,-5.2525264 -45.360183,-5.1096694 C -37.122088,-4.8953834 -31.383993,2.747474 -31.360183,7.96176 L -31.931612,12.96176 C -32.05066,14.818903 -26.098279,12.747474 -26.288755,14.247474 C -25.883993,13.104617 -25.407803,10.747474 -25.503041,8.033189 C -25.550661,-1.609669 -33.669708,-10.681097 -45.431612,-10.895383 C -54.014946,-10.76443 -60.937565,-5.8656214 -63.306613,0.613546 C -63.442086,0.647006 -64.776851,2.795093 -65.003041,5.747474 L -65.003041,5.747474 z"
         style="opacity:0.3064516;fill:#ffffff;fill-opacity:1;fill-rule:evenodd;stroke:none" />
    </g>
  </g>
</svg>
